<svg version="1.1" id="Layer_1" xmlns="http://www.w3.org/2000/svg" xmlns:xlink="http://www.w3.org/1999/xlink" x="0px" y="0px"
	 width="100%" viewBox="0 0 1415 2000" enable-background="new 0 0 1415 2000" xml:space="preserve">
<path fill="#FFFFFF" opacity="1.000000" stroke="none" 
	d="
M702.000000,2001.000000 
	C468.000061,2001.000000 234.500137,2001.000000 1.000157,2001.000000 
	C1.000104,1334.333618 1.000104,667.667175 1.000052,1.000604 
	C472.666260,1.000403 944.332520,1.000403 1415.999023,1.000201 
	C1415.999390,667.666077 1415.999390,1334.332153 1415.999756,2000.999023 
	C1178.166626,2001.000000 940.333313,2001.000000 702.000000,2001.000000 
M636.583069,1058.500488 
	C636.583069,1052.083740 636.583069,1045.666870 636.583069,1039.440796 
	C625.863892,1039.440796 616.150269,1039.440796 606.423035,1039.440796 
	C606.423035,1056.540894 606.623596,1073.198730 606.295227,1089.846191 
	C606.202271,1094.557983 605.299255,1099.540161 603.518311,1103.886353 
	C589.836060,1137.276245 553.027405,1160.277466 516.825623,1158.789917 
	C489.765869,1157.677979 467.383881,1146.409058 448.438629,1127.790771 
	C426.751129,1106.477661 413.470184,1080.243042 404.973633,1051.360596 
	C403.772644,1047.278076 402.686981,1043.161377 401.603546,1039.260742 
	C391.311432,1039.260742 381.542328,1039.260742 371.616394,1039.260742 
	C371.813019,1040.360718 371.888458,1041.194580 372.114044,1041.985352 
	C380.147156,1070.142212 393.233398,1095.614380 413.655457,1116.767578 
	C449.519348,1153.915161 493.203308,1169.478394 544.289124,1160.607544 
	C584.631653,1153.602173 614.063843,1129.993164 635.394104,1095.703491 
	C636.358093,1094.153809 636.512756,1091.916748 636.532898,1089.994507 
	C636.639771,1079.830688 636.582642,1069.665161 636.583069,1058.500488 
M808.228577,1066.088623 
	C811.936584,1057.118408 815.644592,1048.148071 819.427856,1038.995728 
	C813.376282,1038.995728 807.065613,1038.868286 800.767578,1039.094116 
	C799.364075,1039.144531 797.598633,1040.102295 796.686096,1041.208496 
	C780.285156,1061.090576 772.697571,1083.560913 777.023315,1109.436890 
	C781.550781,1136.519531 800.445801,1157.821411 825.402161,1161.595825 
	C860.385071,1166.886841 890.193115,1155.976440 913.809448,1129.468750 
	C931.144104,1110.011597 940.059998,1086.492920 944.963745,1061.281128 
	C946.375732,1054.021606 947.233582,1046.654175 948.345581,1039.336182 
	C947.613770,1039.078979 946.881958,1038.821777 946.150208,1038.564575 
	C945.378174,1040.017944 944.134094,1041.400635 943.904846,1042.935059 
	C940.302734,1067.049072 933.620056,1090.071411 920.018799,1110.628662 
	C908.692444,1127.747681 894.042908,1140.606323 873.335510,1144.744873 
	C843.278137,1150.751953 815.027832,1136.967285 807.533630,1105.001099 
	C804.540894,1092.235962 805.207520,1079.563477 808.228577,1066.088623 
M539.955872,807.219543 
	C552.704651,809.410217 564.793030,813.492737 575.895996,820.183777 
	C592.288330,830.062317 604.755432,843.582703 613.243713,860.786865 
	C613.935974,862.190063 615.646179,863.091125 617.834534,865.097534 
	C617.834534,847.947937 617.834534,832.655884 617.834534,817.213135 
	C615.689270,816.467590 613.665039,815.722046 611.614502,815.057861 
	C584.167175,806.168091 555.960510,802.004211 527.169067,801.157593 
	C499.607117,800.347107 473.472382,805.557556 449.436005,819.360657 
	C409.943848,842.039307 386.006409,876.752319 372.958405,919.632629 
	C370.672455,927.145203 369.125000,934.882446 367.152527,942.855347 
	C378.024933,942.855347 387.821045,942.855347 397.959839,942.855347 
	C398.288513,941.178101 398.648682,939.587646 398.907776,937.980896 
	C402.371826,916.496887 408.315704,895.764893 418.099548,876.268860 
	C431.102142,850.359009 448.861267,828.830811 475.304138,815.577209 
	C495.569672,805.419800 517.019287,803.821716 539.955872,807.219543 
M1002.914856,1043.406006 
	C1001.470886,1041.936890 1000.080688,1039.263550 998.574097,1039.196167 
	C989.610596,1038.796143 980.620239,1038.998535 971.174377,1038.998535 
	C971.849365,1040.962158 972.336792,1042.514893 972.912842,1044.034058 
	C977.452087,1056.006226 982.377136,1067.847900 986.456604,1079.974365 
	C990.632446,1092.387573 994.903442,1104.893555 997.471069,1117.692261 
	C1000.867981,1134.624390 992.653748,1146.217163 975.846375,1150.199829 
	C970.546814,1151.455688 964.979248,1151.547729 959.567993,1152.388550 
	C958.203552,1152.600830 956.968567,1153.645996 955.674072,1154.308350 
	C955.889465,1154.755371 956.104797,1155.202515 956.320190,1155.649536 
	C994.161865,1155.649536 1032.003540,1155.649536 1069.845337,1155.649536 
	C1070.050415,1155.149414 1070.255493,1154.649292 1070.460571,1154.149170 
	C1069.226196,1153.467041 1068.036499,1152.300781 1066.750000,1152.181641 
	C1058.824219,1151.448242 1052.022583,1148.019409 1047.550049,1141.796143 
	C1041.473999,1133.341797 1035.337036,1124.594116 1031.275513,1115.095947 
	C1021.277893,1091.716431 1012.450684,1067.836426 1002.914856,1043.406006 
M899.407166,822.798828 
	C884.353821,862.694214 869.300476,902.589600 854.247864,942.483215 
	C858.655396,944.132324 858.876648,940.952576 859.693359,938.785645 
	C871.136108,908.425415 882.533447,878.048096 893.954956,847.679810 
	C894.551819,846.092712 895.264893,844.549255 896.258667,842.190918 
	C897.153015,844.461121 897.652588,845.689941 898.123291,846.929871 
	C909.757324,877.573730 921.363037,908.228394 933.091614,938.835999 
	C933.701111,940.426758 935.311951,942.768188 936.527039,942.812134 
	C945.769104,943.146362 955.028809,942.995056 964.864807,942.995056 
	C958.422241,925.993652 952.233032,909.678162 946.056702,893.357727 
	C934.926270,863.946655 923.824280,834.524780 912.617737,805.142761 
	C912.045166,803.641357 910.602234,802.472046 909.564575,801.148132 
	C908.395752,802.523682 906.798645,803.720276 906.135437,805.307068 
	C903.827026,810.829956 901.842285,816.487976 899.407166,822.798828 
M531.500000,943.003052 
	C549.631897,943.003052 567.763855,943.003052 585.895752,943.003052 
	C585.997192,942.486694 586.098572,941.970337 586.199951,941.454041 
	C568.063660,935.102905 550.169373,927.903015 531.721802,922.643921 
	C513.950989,917.577881 495.645264,916.265137 477.940735,924.078979 
	C468.748993,928.135742 460.650543,933.586914 454.925049,943.003052 
	C457.235596,943.003052 458.867950,943.096497 460.486664,942.987732 
	C470.077118,942.343201 479.669220,941.045715 489.251648,941.121277 
	C503.005188,941.229614 516.750916,942.327576 531.500000,943.003052 
M710.916565,841.500000 
	C710.971558,798.359741 711.019958,755.219421 711.088013,712.079163 
	C711.099304,704.917664 711.264465,697.755432 711.177002,690.595825 
	C711.164795,689.600769 710.103699,688.618469 709.528320,687.630371 
	C708.801086,688.629883 707.913757,689.555420 707.405212,690.655945 
	C707.087585,691.343140 707.340698,692.294434 707.339294,693.127258 
	C707.203308,774.576965 707.067383,856.026733 706.931946,937.476440 
	C706.929016,939.253235 706.931580,941.030029 706.931580,942.703979 
	C711.776123,943.652954 710.685425,940.462341 710.692505,938.440613 
	C710.805115,906.460571 710.852356,874.480225 710.916565,841.500000 
M706.118652,1216.500000 
	C706.093811,1232.660400 706.003113,1248.821411 706.131531,1264.980591 
	C706.146790,1266.898926 707.359375,1268.807617 708.016968,1270.720825 
	C708.639587,1268.759155 709.800049,1266.799316 709.807007,1264.835449 
	C710.065552,1191.532471 710.217712,1118.229248 710.383606,1044.926025 
	C710.387695,1043.108521 710.384155,1041.290894 710.384155,1039.407227 
	C705.058411,1038.097168 706.626587,1042.020752 706.618652,1044.069336 
	C706.397034,1101.212769 706.266113,1158.356323 706.118652,1216.500000 
M962.558533,974.096130 
	C961.978210,973.104675 961.397888,972.113220 960.817627,971.121826 
	C959.732056,971.990845 958.289246,972.645447 957.617981,973.763245 
	C952.774963,981.827942 948.088196,989.986450 943.033569,998.661621 
	C941.820068,996.763245 941.006470,995.572937 940.275574,994.333862 
	C936.306030,987.603699 932.441040,980.809326 928.333374,974.164917 
	C927.454346,972.743286 925.720459,971.850159 924.380432,970.713501 
	C923.979370,971.042114 923.578308,971.370728 923.177246,971.699280 
	C923.177246,983.161011 923.103699,994.623962 923.297119,1006.082458 
	C923.315369,1007.164368 925.011230,1008.218079 925.928223,1009.284851 
	C926.430420,1008.982544 926.932617,1008.680176 927.434814,1008.377869 
	C927.434814,999.655579 927.434814,990.933289 927.434814,982.211060 
	C927.805969,982.081177 928.177124,981.951294 928.548279,981.821472 
	C933.170715,989.395447 937.793213,996.969421 942.949707,1005.418457 
	C948.259949,996.520630 952.843506,988.840393 957.427063,981.160156 
	C957.787170,981.307068 958.147217,981.454041 958.507324,981.600952 
	C958.507324,990.550476 958.507324,999.500000 958.507324,1008.403748 
	C962.586792,1009.832092 962.581726,1007.467712 962.573608,1004.932861 
	C962.541687,994.947815 962.560120,984.962585 962.558533,974.096130 
M447.342560,975.797607 
	C446.566681,976.657410 445.721008,977.464539 445.026093,978.385437 
	C439.666260,985.487305 439.748413,995.130310 445.193909,1001.953552 
	C450.731598,1008.892151 460.986938,1011.106934 469.660187,1007.237366 
	C477.475922,1003.750366 481.747620,995.476562 480.240936,986.743408 
	C477.697418,972.000488 461.102783,966.151733 447.342560,975.797607 
M535.590454,979.057190 
	C533.550964,974.254272 529.546997,971.851624 524.711426,971.460388 
	C518.992004,970.997681 513.206543,971.351685 506.979279,971.351685 
	C506.979279,983.235291 506.934479,994.824219 507.073242,1006.410889 
	C507.083221,1007.242249 508.434662,1008.057556 509.162445,1008.880371 
	C509.780121,1007.944092 510.850403,1007.044800 510.930389,1006.064636 
	C511.167877,1003.154236 511.015472,1000.212036 511.015472,997.722168 
	C519.792725,995.270081 526.301392,996.941711 530.001770,1005.189758 
	C530.267944,1005.783203 530.648315,1006.464050 531.171387,1006.777405 
	C532.689270,1007.686707 534.306946,1008.429565 535.885437,1009.237671 
	C536.088379,1008.863647 536.291321,1008.489624 536.494263,1008.115601 
	C533.816101,1004.208557 531.137878,1000.301575 528.295654,996.155212 
	C535.401428,992.482117 537.615845,986.972961 535.590454,979.057190 
M996.214539,983.500244 
	C996.214539,979.524963 996.214539,975.549622 996.214539,971.661621 
	C993.076416,970.407776 991.980957,971.333313 992.005737,974.356567 
	C992.091553,984.829712 992.084290,995.304321 992.011536,1005.777649 
	C991.989868,1008.895508 993.255066,1009.555481 996.457031,1008.232178 
	C996.457031,1002.944275 996.457031,997.549500 996.457031,992.069946 
	C1004.372375,992.069946 1011.738586,992.069946 1019.689697,992.069946 
	C1019.689697,997.881653 1019.689697,1003.266357 1019.689697,1008.651062 
	C1020.272034,1008.889709 1020.854309,1009.128357 1021.436646,1009.367004 
	C1022.205383,1008.134155 1023.619934,1006.912231 1023.641113,1005.666626 
	C1023.819641,995.195801 1023.803467,984.719788 1023.650391,974.248169 
	C1023.634949,973.192566 1022.329346,972.155701 1021.622559,971.110107 
	C1020.918823,972.147034 1019.663574,973.155273 1019.607727,974.225952 
	C1019.377686,978.642334 1019.511414,983.077637 1019.511414,987.951111 
	C1012.243408,987.951111 1005.624146,987.867920 999.008606,987.991150 
	C996.287109,988.041809 996.084045,986.507690 996.214539,983.500244 
M706.720764,990.731262 
	C706.700867,985.235474 706.792603,979.734985 706.565735,974.247803 
	C706.521118,973.168091 705.247070,972.139221 704.539978,971.086914 
	C703.783691,972.090759 702.385254,973.085022 702.370056,974.100037 
	C702.210327,984.757080 702.280518,995.417419 702.267578,1006.076843 
	C702.263306,1009.594177 704.092468,1009.243896 706.316345,1008.420898 
	C707.405823,997.122498 707.763245,996.398010 714.530151,991.848755 
	C718.755249,996.685486 722.885681,1001.672180 727.335571,1006.355225 
	C728.727295,1007.819885 730.980896,1008.465576 732.840027,1009.486084 
	C733.128906,1009.024780 733.417725,1008.563538 733.706604,1008.102234 
	C728.212708,1001.537781 722.718872,994.973389 717.094116,988.252502 
	C722.495544,982.532471 727.581421,977.146606 732.667297,971.760742 
	C732.369690,971.337952 732.072021,970.915100 731.774414,970.492249 
	C729.911377,971.485535 727.706116,972.124817 726.246643,973.535522 
	C720.980225,978.626221 716.009399,984.021423 710.817078,989.191284 
	C709.780945,990.222900 708.260864,990.768616 706.720764,990.731262 
M1057.436890,984.429688 
	C1057.436890,981.465027 1057.436890,978.500427 1057.436890,974.838379 
	C1059.862671,974.838379 1061.805786,974.840027 1063.748901,974.838074 
	C1068.077026,974.833740 1072.409180,974.922180 1076.729492,974.735596 
	C1077.515625,974.701660 1078.253052,973.540466 1079.012939,972.899597 
	C1078.401733,972.296326 1077.798096,971.177246 1077.177979,971.167908 
	C1069.268311,971.049255 1061.356201,971.089783 1053.477661,971.089783 
	C1053.477661,984.097046 1053.477661,996.323975 1053.477661,1008.952271 
	C1061.627808,1008.952271 1069.425171,1009.017029 1077.218384,1008.865356 
	C1078.131714,1008.847595 1079.021729,1007.637695 1079.922485,1006.980408 
	C1078.947510,1006.380798 1078.036377,1005.475891 1076.982178,1005.256042 
	C1075.546265,1004.956604 1074.001221,1005.179443 1072.503052,1005.179382 
	C1067.588013,1005.179077 1062.672974,1005.179260 1057.436890,1005.179260 
	C1057.436890,1001.475891 1057.603271,998.647278 1057.393677,995.846863 
	C1057.147217,992.554932 1058.471680,991.398376 1061.704834,991.561401 
	C1065.689819,991.762390 1069.700928,991.747803 1073.683228,991.519714 
	C1074.886963,991.450806 1076.032471,990.362610 1077.204590,989.741272 
	C1076.994263,989.145325 1076.783936,988.549438 1076.573608,987.953491 
	C1071.454590,987.953491 1066.326294,988.121155 1061.223022,987.837097 
	C1059.924194,987.764832 1058.704956,986.258118 1057.436890,984.429688 
M341.023560,979.576477 
	C347.894653,973.816711 354.533844,973.127625 362.132294,977.162476 
	C363.105713,977.679321 364.559540,977.291504 365.790802,977.322754 
	C365.172485,976.174500 364.846497,974.578674 363.887360,973.952148 
	C358.548553,970.464111 352.611328,970.031860 346.655334,971.778320 
	C335.958771,974.914917 330.314575,986.002380 333.938263,996.238159 
	C337.666962,1006.770386 349.542175,1011.966797 360.578430,1007.895386 
	C365.811279,1005.965027 369.503693,995.537903 366.418610,990.917847 
	C365.922546,990.174927 364.286835,990.193054 362.646057,989.699341 
	C362.646057,992.793274 362.650696,995.105835 362.645172,997.418396 
	C362.631165,1003.274414 361.527100,1004.404419 355.488861,1005.114929 
	C348.611755,1005.924133 342.816040,1004.003357 339.233643,997.888855 
	C335.700073,991.857910 336.283478,985.791443 341.023560,979.576477 
M659.510437,971.090698 
	C658.688843,971.528320 657.426331,971.759949 657.111145,972.434326 
	C651.565979,984.298767 646.136414,996.217285 640.681763,1008.124084 
	C641.096558,1008.536133 641.511414,1008.948181 641.926208,1009.360229 
	C643.218933,1008.395630 645.416016,1007.615479 645.656616,1006.436279 
	C647.142822,999.150269 652.010742,998.089417 658.210266,998.877136 
	C659.685852,999.064636 661.243591,999.122681 662.697998,998.867065 
	C668.127808,997.912659 671.553589,999.800476 672.976135,1005.315247 
	C673.632141,1007.858337 674.931580,1010.072693 678.611206,1008.264465 
	C673.127319,996.297607 667.676392,984.360352 662.146973,972.459595 
	C661.863342,971.849060 660.905457,971.551941 659.510437,971.090698 
M789.806458,1008.352600 
	C784.580444,996.545654 779.469116,984.685669 774.050476,972.967773 
	C772.636963,969.910828 769.947449,969.915527 768.482544,973.018311 
	C762.965881,984.702576 757.695312,996.502991 752.332520,1008.259888 
	C752.659424,1008.639465 752.986389,1009.019043 753.313293,1009.398621 
	C754.654968,1008.479797 756.916992,1007.775330 757.188965,1006.607361 
	C758.957825,999.012634 764.190857,998.081543 770.645203,998.872986 
	C772.446167,999.093811 774.336487,999.148621 776.117249,998.858582 
	C780.474915,998.149048 782.816345,999.872498 784.121704,1004.067627 
	C784.815613,1006.297729 785.229248,1009.716064 789.806458,1008.352600 
M893.966797,974.812866 
	C893.471863,971.283264 893.471863,971.283264 889.971497,971.933533 
	C889.971497,973.695435 889.975586,975.510315 889.970886,977.325134 
	C889.956665,982.814758 890.156982,988.315674 889.871521,993.791260 
	C889.444763,1001.977539 885.178284,1005.779541 877.442505,1005.331848 
	C870.937439,1004.955383 867.392761,1001.180847 867.101440,993.711365 
	C866.848694,987.232788 867.114075,980.734802 866.915710,974.252563 
	C866.883362,973.194580 865.635864,972.173889 864.949951,971.135925 
	C864.289978,972.198730 863.087524,973.247131 863.058899,974.326660 
	C862.886780,980.809814 862.866455,987.302917 863.018982,993.787415 
	C863.249634,1003.587585 868.740784,1009.018433 878.225708,1009.077454 
	C887.848022,1009.137329 893.468933,1003.923584 893.863098,994.206909 
	C894.112366,988.061218 893.946716,981.898621 893.966797,974.812866 
M562.886902,980.679443 
	C567.624146,988.549011 574.078186,995.750305 572.273987,1006.120361 
	C572.118103,1007.016541 574.000061,1008.267212 574.935486,1009.353210 
	C575.399170,1009.052490 575.862793,1008.751770 576.326477,1008.450989 
	C576.326477,1006.971252 576.462463,1005.476624 576.302490,1004.014404 
	C575.675659,998.283875 577.306335,993.373779 580.635803,988.630066 
	C584.419861,983.238464 587.542236,977.382385 590.952332,971.728210 
	C590.457581,971.344727 589.962830,970.961182 589.468079,970.577698 
	C582.065125,975.306702 580.568359,985.041626 574.031128,991.354248 
	C570.243958,985.235474 566.787415,979.399963 563.031006,973.764465 
	C562.131531,972.415100 560.233521,971.731384 558.794739,970.741516 
	C558.439453,971.163879 558.084106,971.586243 557.728821,972.008606 
	C559.324890,974.688171 560.921021,977.367798 562.886902,980.679443 
M838.517700,1008.790405 
	C840.419434,1005.624451 838.596130,1005.170105 835.952148,1005.185913 
	C830.176636,1005.220581 824.400818,1005.196594 818.277710,1005.196594 
	C818.277710,993.490662 818.277710,982.530212 818.277710,971.669922 
	C815.114075,970.401672 813.964050,971.314087 814.023132,974.347046 
	C814.130066,979.839722 814.051392,985.336060 814.050964,990.830872 
	C814.050476,996.755066 814.050842,1002.679260 814.050842,1008.922913 
	C822.430847,1008.922913 830.066467,1008.922913 838.517700,1008.790405 
M407.501251,1008.957825 
	C410.494019,1008.957825 413.501953,1009.133850 416.472778,1008.878540 
	C417.824493,1008.762390 419.102905,1007.792908 420.414581,1007.210510 
	C419.025909,1006.533020 417.659393,1005.331055 416.244598,1005.271179 
	C410.815338,1005.041443 405.370605,1005.178101 399.422852,1005.178101 
	C399.422852,1002.710144 399.423096,1000.917725 399.422821,999.125305 
	C399.421631,990.812012 399.494446,982.497253 399.325928,974.187378 
	C399.304688,973.140442 398.014099,972.119263 397.311676,971.086182 
	C396.581543,971.939026 395.226105,972.784241 395.215637,973.645813 
	C395.074707,985.232788 395.121216,996.822083 395.121216,1008.957642 
	C399.289795,1008.957642 402.902374,1008.957642 407.501251,1008.957825 
M909.049133,931.878418 
	C914.635315,933.475830 914.653198,938.140930 915.466736,943.167480 
	C916.905701,942.438660 918.653503,941.407837 918.735535,940.258179 
	C919.305176,932.272705 912.690857,926.622986 904.921082,928.270447 
	C896.421875,930.072632 891.189270,936.146973 886.546204,942.996216 
	C888.863098,942.412476 890.928162,941.383728 892.458740,939.828857 
	C896.856384,935.361511 901.396240,931.371460 909.049133,931.878418 
z"/>
<path fill="#FBA42A" opacity="1.000000" stroke="none" 
	d="
M636.582764,1059.000366 
	C636.582642,1069.665161 636.639771,1079.830688 636.532898,1089.994507 
	C636.512756,1091.916748 636.358093,1094.153809 635.394104,1095.703491 
	C614.063843,1129.993164 584.631653,1153.602173 544.289124,1160.607544 
	C493.203308,1169.478394 449.519348,1153.915161 413.655457,1116.767578 
	C393.233398,1095.614380 380.147156,1070.142212 372.114044,1041.985352 
	C371.888458,1041.194580 371.813019,1040.360718 371.616394,1039.260742 
	C381.542328,1039.260742 391.311432,1039.260742 401.603546,1039.260742 
	C402.686981,1043.161377 403.772644,1047.278076 404.973633,1051.360596 
	C413.470184,1080.243042 426.751129,1106.477661 448.438629,1127.790771 
	C467.383881,1146.409058 489.765869,1157.677979 516.825623,1158.789917 
	C553.027405,1160.277466 589.836060,1137.276245 603.518311,1103.886353 
	C605.299255,1099.540161 606.202271,1094.557983 606.295227,1089.846191 
	C606.623596,1073.198730 606.423035,1056.540894 606.423035,1039.440796 
	C616.150269,1039.440796 625.863892,1039.440796 636.583069,1039.440796 
	C636.583069,1045.666870 636.583069,1052.083740 636.582764,1059.000366 
z"/>
<path fill="#FBA42A" opacity="1.000000" stroke="none" 
	d="
M808.138672,1066.493896 
	C805.207520,1079.563477 804.540894,1092.235962 807.533630,1105.001099 
	C815.027832,1136.967285 843.278137,1150.751953 873.335510,1144.744873 
	C894.042908,1140.606323 908.692444,1127.747681 920.018799,1110.628662 
	C933.620056,1090.071411 940.302734,1067.049072 943.904846,1042.935059 
	C944.134094,1041.400635 945.378174,1040.017944 946.150208,1038.564575 
	C946.881958,1038.821777 947.613770,1039.078979 948.345581,1039.336182 
	C947.233582,1046.654175 946.375732,1054.021606 944.963745,1061.281128 
	C940.059998,1086.492920 931.144104,1110.011597 913.809448,1129.468750 
	C890.193115,1155.976440 860.385071,1166.886841 825.402161,1161.595825 
	C800.445801,1157.821411 781.550781,1136.519531 777.023315,1109.436890 
	C772.697571,1083.560913 780.285156,1061.090576 796.686096,1041.208496 
	C797.598633,1040.102295 799.364075,1039.144531 800.767578,1039.094116 
	C807.065613,1038.868286 813.376282,1038.995728 819.427856,1038.995728 
	C815.644592,1048.148071 811.936584,1057.118408 808.138672,1066.493896 
z"/>
<path fill="#FBA42A" opacity="1.000000" stroke="none" 
	d="
M539.525024,807.151733 
	C517.019287,803.821716 495.569672,805.419800 475.304138,815.577209 
	C448.861267,828.830811 431.102142,850.359009 418.099548,876.268860 
	C408.315704,895.764893 402.371826,916.496887 398.907776,937.980896 
	C398.648682,939.587646 398.288513,941.178101 397.959839,942.855347 
	C387.821045,942.855347 378.024933,942.855347 367.152527,942.855347 
	C369.125000,934.882446 370.672455,927.145203 372.958405,919.632629 
	C386.006409,876.752319 409.943848,842.039307 449.436005,819.360657 
	C473.472382,805.557556 499.607117,800.347107 527.169067,801.157593 
	C555.960510,802.004211 584.167175,806.168091 611.614502,815.057861 
	C613.665039,815.722046 615.689270,816.467590 617.834534,817.213135 
	C617.834534,832.655884 617.834534,847.947937 617.834534,865.097534 
	C615.646179,863.091125 613.935974,862.190063 613.243713,860.786865 
	C604.755432,843.582703 592.288330,830.062317 575.895996,820.183777 
	C564.793030,813.492737 552.704651,809.410217 539.525024,807.151733 
z"/>
<path fill="#FBA429" opacity="1.000000" stroke="none" 
	d="
M1003.033875,1043.781738 
	C1012.450684,1067.836426 1021.277893,1091.716431 1031.275513,1115.095947 
	C1035.337036,1124.594116 1041.473999,1133.341797 1047.550049,1141.796143 
	C1052.022583,1148.019409 1058.824219,1151.448242 1066.750000,1152.181641 
	C1068.036499,1152.300781 1069.226196,1153.467041 1070.460571,1154.149170 
	C1070.255493,1154.649292 1070.050415,1155.149414 1069.845337,1155.649536 
	C1032.003540,1155.649536 994.161865,1155.649536 956.320190,1155.649536 
	C956.104797,1155.202515 955.889465,1154.755371 955.674072,1154.308350 
	C956.968567,1153.645996 958.203552,1152.600830 959.567993,1152.388550 
	C964.979248,1151.547729 970.546814,1151.455688 975.846375,1150.199829 
	C992.653748,1146.217163 1000.867981,1134.624390 997.471069,1117.692261 
	C994.903442,1104.893555 990.632446,1092.387573 986.456604,1079.974365 
	C982.377136,1067.847900 977.452087,1056.006226 972.912842,1044.034058 
	C972.336792,1042.514893 971.849365,1040.962158 971.174377,1038.998535 
	C980.620239,1038.998535 989.610596,1038.796143 998.574097,1039.196167 
	C1000.080688,1039.263550 1001.470886,1041.936890 1003.033875,1043.781738 
z"/>
<path fill="#FBA42A" opacity="1.000000" stroke="none" 
	d="
M899.570801,822.446716 
	C901.842285,816.487976 903.827026,810.829956 906.135437,805.307068 
	C906.798645,803.720276 908.395752,802.523682 909.564575,801.148132 
	C910.602234,802.472046 912.045166,803.641357 912.617737,805.142761 
	C923.824280,834.524780 934.926270,863.946655 946.056702,893.357727 
	C952.233032,909.678162 958.422241,925.993652 964.864807,942.995056 
	C955.028809,942.995056 945.769104,943.146362 936.527039,942.812134 
	C935.311951,942.768188 933.701111,940.426758 933.091614,938.835999 
	C921.363037,908.228394 909.757324,877.573730 898.123291,846.929871 
	C897.652588,845.689941 897.153015,844.461121 896.258667,842.190918 
	C895.264893,844.549255 894.551819,846.092712 893.954956,847.679810 
	C882.533447,878.048096 871.136108,908.425415 859.693359,938.785645 
	C858.876648,940.952576 858.655396,944.132324 854.247864,942.483215 
	C869.300476,902.589600 884.353821,862.694214 899.570801,822.446716 
z"/>
<path fill="#FBA429" opacity="1.000000" stroke="none" 
	d="
M531.000000,943.003052 
	C516.750916,942.327576 503.005188,941.229614 489.251648,941.121277 
	C479.669220,941.045715 470.077118,942.343201 460.486664,942.987732 
	C458.867950,943.096497 457.235596,943.003052 454.925049,943.003052 
	C460.650543,933.586914 468.748993,928.135742 477.940735,924.078979 
	C495.645264,916.265137 513.950989,917.577881 531.721802,922.643921 
	C550.169373,927.903015 568.063660,935.102905 586.199951,941.454041 
	C586.098572,941.970337 585.997192,942.486694 585.895752,943.003052 
	C567.763855,943.003052 549.631897,943.003052 531.000000,943.003052 
z"/>
<path fill="#FCAC3D" opacity="1.000000" stroke="none" 
	d="
M710.915527,842.000000 
	C710.852356,874.480225 710.805115,906.460571 710.692505,938.440613 
	C710.685425,940.462341 711.776123,943.652954 706.931580,942.703979 
	C706.931580,941.030029 706.929016,939.253235 706.931946,937.476440 
	C707.067383,856.026733 707.203308,774.576965 707.339294,693.127258 
	C707.340698,692.294434 707.087585,691.343140 707.405212,690.655945 
	C707.913757,689.555420 708.801086,688.629883 709.528320,687.630371 
	C710.103699,688.618469 711.164795,689.600769 711.177002,690.595825 
	C711.264465,697.755432 711.099304,704.917664 711.088013,712.079163 
	C711.019958,755.219421 710.971558,798.359741 710.915527,842.000000 
z"/>
<path fill="#FBAA38" opacity="1.000000" stroke="none" 
	d="
M706.119385,1216.000000 
	C706.266113,1158.356323 706.397034,1101.212769 706.618652,1044.069336 
	C706.626587,1042.020752 705.058411,1038.097168 710.384155,1039.407227 
	C710.384155,1041.290894 710.387695,1043.108521 710.383606,1044.926025 
	C710.217712,1118.229248 710.065552,1191.532471 709.807007,1264.835449 
	C709.800049,1266.799316 708.639587,1268.759155 708.016968,1270.720825 
	C707.359375,1268.807617 706.146790,1266.898926 706.131531,1264.980591 
	C706.003113,1248.821411 706.093811,1232.660400 706.119385,1216.000000 
z"/>
<path fill="#FBA935" opacity="1.000000" stroke="none" 
	d="
M962.559204,974.536743 
	C962.560120,984.962585 962.541687,994.947815 962.573608,1004.932861 
	C962.581726,1007.467712 962.586792,1009.832092 958.507324,1008.403748 
	C958.507324,999.500000 958.507324,990.550476 958.507324,981.600952 
	C958.147217,981.454041 957.787170,981.307068 957.427063,981.160156 
	C952.843506,988.840393 948.259949,996.520630 942.949707,1005.418457 
	C937.793213,996.969421 933.170715,989.395447 928.548279,981.821472 
	C928.177124,981.951294 927.805969,982.081177 927.434814,982.211060 
	C927.434814,990.933289 927.434814,999.655579 927.434814,1008.377869 
	C926.932617,1008.680176 926.430420,1008.982544 925.928223,1009.284851 
	C925.011230,1008.218079 923.315369,1007.164368 923.297119,1006.082458 
	C923.103699,994.623962 923.177246,983.161011 923.177246,971.699280 
	C923.578308,971.370728 923.979370,971.042114 924.380432,970.713501 
	C925.720459,971.850159 927.454346,972.743286 928.333374,974.164917 
	C932.441040,980.809326 936.306030,987.603699 940.275574,994.333862 
	C941.006470,995.572937 941.820068,996.763245 943.033569,998.661621 
	C948.088196,989.986450 952.774963,981.827942 957.617981,973.763245 
	C958.289246,972.645447 959.732056,971.990845 960.817627,971.121826 
	C961.397888,972.113220 961.978210,973.104675 962.559204,974.536743 
z"/>
<path fill="#FBA935" opacity="1.000000" stroke="none" 
	d="
M447.626404,975.572998 
	C461.102783,966.151733 477.697418,972.000488 480.240936,986.743408 
	C481.747620,995.476562 477.475922,1003.750366 469.660187,1007.237366 
	C460.986938,1011.106934 450.731598,1008.892151 445.193909,1001.953552 
	C439.748413,995.130310 439.666260,985.487305 445.026093,978.385437 
	C445.721008,977.464539 446.566681,976.657410 447.626404,975.572998 
M475.183807,996.218201 
	C478.272247,986.110962 474.215881,977.389465 465.379486,975.138062 
	C456.033630,972.756897 447.561920,977.699524 445.473846,986.751831 
	C443.804260,993.989807 447.637756,1001.394897 454.505341,1004.197510 
	C462.423767,1007.429016 470.015228,1004.746948 475.183807,996.218201 
z"/>
<path fill="#FBA935" opacity="1.000000" stroke="none" 
	d="
M535.721802,979.411316 
	C537.615845,986.972961 535.401428,992.482117 528.295654,996.155212 
	C531.137878,1000.301575 533.816101,1004.208557 536.494263,1008.115601 
	C536.291321,1008.489624 536.088379,1008.863647 535.885437,1009.237671 
	C534.306946,1008.429565 532.689270,1007.686707 531.171387,1006.777405 
	C530.648315,1006.464050 530.267944,1005.783203 530.001770,1005.189758 
	C526.301392,996.941711 519.792725,995.270081 511.015472,997.722168 
	C511.015472,1000.212036 511.167877,1003.154236 510.930389,1006.064636 
	C510.850403,1007.044800 509.780121,1007.944092 509.162415,1008.880371 
	C508.434662,1008.057556 507.083221,1007.242249 507.073242,1006.410889 
	C506.934479,994.824219 506.979279,983.235291 506.979279,971.351685 
	C513.206543,971.351685 518.992004,970.997681 524.711426,971.460388 
	C529.546997,971.851624 533.550964,974.254272 535.721802,979.411316 
M513.666565,974.807495 
	C512.806152,975.334045 511.216614,975.836182 511.198090,976.390930 
	C511.012543,981.947510 511.085297,987.512695 511.085297,993.065308 
	C515.744324,993.065308 519.726074,993.303223 523.667908,993.007996 
	C529.229553,992.591431 532.193237,989.256348 532.178528,984.015564 
	C532.164185,978.890381 529.072876,975.556946 523.565735,975.045776 
	C520.603821,974.770935 517.607239,974.870239 513.666565,974.807495 
z"/>
<path fill="#FBA935" opacity="1.000000" stroke="none" 
	d="
M996.215332,983.998840 
	C996.084045,986.507690 996.287109,988.041809 999.008606,987.991150 
	C1005.624146,987.867920 1012.243408,987.951111 1019.511414,987.951111 
	C1019.511414,983.077637 1019.377686,978.642334 1019.607727,974.225952 
	C1019.663574,973.155273 1020.918823,972.147034 1021.622559,971.110107 
	C1022.329346,972.155701 1023.634949,973.192566 1023.650391,974.248169 
	C1023.803467,984.719788 1023.819641,995.195801 1023.641113,1005.666626 
	C1023.619934,1006.912231 1022.205383,1008.134155 1021.436646,1009.367004 
	C1020.854309,1009.128357 1020.272034,1008.889709 1019.689697,1008.651062 
	C1019.689697,1003.266357 1019.689697,997.881653 1019.689697,992.069946 
	C1011.738586,992.069946 1004.372375,992.069946 996.457031,992.069946 
	C996.457031,997.549500 996.457031,1002.944275 996.457031,1008.232178 
	C993.255066,1009.555481 991.989868,1008.895508 992.011536,1005.777649 
	C992.084290,995.304321 992.091553,984.829712 992.005737,974.356567 
	C991.980957,971.333313 993.076416,970.407776 996.214539,971.661621 
	C996.214539,975.549622 996.214539,979.524963 996.215332,983.998840 
z"/>
<path fill="#FCAC3D" opacity="1.000000" stroke="none" 
	d="
M706.842346,991.134766 
	C708.260864,990.768616 709.780945,990.222900 710.817078,989.191284 
	C716.009399,984.021423 720.980225,978.626221 726.246643,973.535522 
	C727.706116,972.124817 729.911377,971.485535 731.774414,970.492249 
	C732.072021,970.915100 732.369690,971.337952 732.667297,971.760742 
	C727.581421,977.146606 722.495544,982.532471 717.094116,988.252502 
	C722.718872,994.973389 728.212708,1001.537781 733.706604,1008.102234 
	C733.417725,1008.563538 733.128906,1009.024780 732.840027,1009.486084 
	C730.980896,1008.465576 728.727295,1007.819885 727.335571,1006.355225 
	C722.885681,1001.672180 718.755249,996.685486 714.530151,991.848755 
	C707.763245,996.398010 707.405823,997.122498 706.316345,1008.420898 
	C704.092468,1009.243896 702.263306,1009.594177 702.267578,1006.076843 
	C702.280518,995.417419 702.210327,984.757080 702.370056,974.100037 
	C702.385254,973.085022 703.783691,972.090759 704.539978,971.086914 
	C705.247070,972.139221 706.521118,973.168091 706.565735,974.247803 
	C706.792603,979.734985 706.700867,985.235474 706.842346,991.134766 
z"/>
<path fill="#FCAC3D" opacity="1.000000" stroke="none" 
	d="
M1057.443115,984.920044 
	C1058.704956,986.258118 1059.924194,987.764832 1061.223022,987.837097 
	C1066.326294,988.121155 1071.454590,987.953491 1076.573608,987.953491 
	C1076.783936,988.549438 1076.994263,989.145325 1077.204590,989.741272 
	C1076.032471,990.362610 1074.886963,991.450806 1073.683228,991.519714 
	C1069.700928,991.747803 1065.689819,991.762390 1061.704834,991.561401 
	C1058.471680,991.398376 1057.147217,992.554932 1057.393677,995.846863 
	C1057.603271,998.647278 1057.436890,1001.475891 1057.436890,1005.179260 
	C1062.672974,1005.179260 1067.588013,1005.179077 1072.503052,1005.179382 
	C1074.001221,1005.179443 1075.546265,1004.956604 1076.982178,1005.256042 
	C1078.036377,1005.475891 1078.947510,1006.380798 1079.922485,1006.980408 
	C1079.021729,1007.637695 1078.131714,1008.847595 1077.218384,1008.865356 
	C1069.425171,1009.017029 1061.627808,1008.952271 1053.477661,1008.952271 
	C1053.477661,996.323975 1053.477661,984.097046 1053.477661,971.089783 
	C1061.356201,971.089783 1069.268311,971.049255 1077.177979,971.167908 
	C1077.798096,971.177246 1078.401733,972.296326 1079.012939,972.899658 
	C1078.253052,973.540466 1077.515625,974.701660 1076.729492,974.735596 
	C1072.409180,974.922180 1068.077026,974.833740 1063.748901,974.838074 
	C1061.805786,974.840027 1059.862671,974.838379 1057.436890,974.838379 
	C1057.436890,978.500427 1057.436890,981.465027 1057.443115,984.920044 
z"/>
<path fill="#FBAA38" opacity="1.000000" stroke="none" 
	d="
M340.785156,979.871460 
	C336.283478,985.791443 335.700073,991.857910 339.233643,997.888855 
	C342.816040,1004.003357 348.611755,1005.924133 355.488861,1005.114929 
	C361.527100,1004.404419 362.631165,1003.274414 362.645172,997.418396 
	C362.650696,995.105835 362.646057,992.793274 362.646057,989.699341 
	C364.286835,990.193054 365.922546,990.174927 366.418610,990.917847 
	C369.503693,995.537903 365.811279,1005.965027 360.578430,1007.895386 
	C349.542175,1011.966797 337.666962,1006.770386 333.938263,996.238159 
	C330.314575,986.002380 335.958771,974.914917 346.655334,971.778320 
	C352.611328,970.031860 358.548553,970.464111 363.887360,973.952148 
	C364.846497,974.578674 365.172485,976.174500 365.790802,977.322754 
	C364.559540,977.291504 363.105713,977.679321 362.132294,977.162476 
	C354.533844,973.127625 347.894653,973.816711 340.785156,979.871460 
z"/>
<path fill="#FBA935" opacity="1.000000" stroke="none" 
	d="
M659.885986,971.099854 
	C660.905457,971.551941 661.863342,971.849060 662.146973,972.459595 
	C667.676392,984.360352 673.127319,996.297607 678.611206,1008.264465 
	C674.931580,1010.072693 673.632141,1007.858337 672.976135,1005.315247 
	C671.553589,999.800476 668.127808,997.912659 662.697998,998.867065 
	C661.243591,999.122681 659.685852,999.064636 658.210266,998.877136 
	C652.010742,998.089417 647.142822,999.150269 645.656616,1006.436279 
	C645.416016,1007.615479 643.218933,1008.395630 641.926208,1009.360229 
	C641.511414,1008.948181 641.096558,1008.536133 640.681763,1008.124084 
	C646.136414,996.217285 651.565979,984.298767 657.111145,972.434326 
	C657.426331,971.759949 658.688843,971.528320 659.885986,971.099854 
M660.457336,977.388000 
	C660.008362,977.189941 659.169739,976.809692 659.165100,976.819519 
	C656.335449,982.870178 653.561951,988.947083 650.673584,995.273865 
	C657.000977,995.273865 662.371887,995.273865 668.382751,995.273865 
	C665.690552,989.150269 663.242188,983.581299 660.457336,977.388000 
z"/>
<path fill="#FBA935" opacity="1.000000" stroke="none" 
	d="
M789.505737,1008.582275 
	C785.229248,1009.716064 784.815613,1006.297729 784.121704,1004.067627 
	C782.816345,999.872498 780.474915,998.149048 776.117249,998.858582 
	C774.336487,999.148621 772.446167,999.093811 770.645203,998.872986 
	C764.190857,998.081543 758.957825,999.012634 757.188965,1006.607361 
	C756.916992,1007.775330 754.654968,1008.479797 753.313293,1009.398621 
	C752.986389,1009.019043 752.659424,1008.639465 752.332520,1008.259888 
	C757.695312,996.502991 762.965881,984.702576 768.482544,973.018311 
	C769.947449,969.915527 772.636963,969.910828 774.050476,972.967773 
	C779.469116,984.685669 784.580444,996.545654 789.505737,1008.582275 
M774.234558,995.654663 
	C775.991760,995.654663 777.749023,995.654663 780.271790,995.654663 
	C777.180054,988.681641 774.444336,982.511536 771.281128,975.377380 
	C768.153687,982.423340 765.389832,988.650024 762.280823,995.654358 
	C766.718994,995.654358 770.020508,995.654358 774.234558,995.654663 
z"/>
<path fill="#FBA935" opacity="1.000000" stroke="none" 
	d="
M893.966980,975.278259 
	C893.946716,981.898621 894.112366,988.061218 893.863098,994.206909 
	C893.468933,1003.923584 887.848022,1009.137329 878.225708,1009.077454 
	C868.740784,1009.018433 863.249634,1003.587585 863.018982,993.787415 
	C862.866455,987.302917 862.886780,980.809814 863.058899,974.326660 
	C863.087524,973.247131 864.289978,972.198730 864.949951,971.135925 
	C865.635864,972.173889 866.883362,973.194580 866.915710,974.252563 
	C867.114075,980.734802 866.848694,987.232788 867.101440,993.711365 
	C867.392761,1001.180847 870.937439,1004.955383 877.442505,1005.331848 
	C885.178284,1005.779541 889.444763,1001.977539 889.871521,993.791260 
	C890.156982,988.315674 889.956665,982.814758 889.970886,977.325134 
	C889.975586,975.510315 889.971497,973.695435 889.971497,971.933533 
	C893.471863,971.283264 893.471863,971.283264 893.966980,975.278259 
z"/>
<path fill="#FBAA38" opacity="1.000000" stroke="none" 
	d="
M562.702026,980.363403 
	C560.921021,977.367798 559.324890,974.688171 557.728821,972.008606 
	C558.084106,971.586243 558.439453,971.163879 558.794739,970.741516 
	C560.233521,971.731384 562.131531,972.415100 563.031006,973.764465 
	C566.787415,979.399963 570.243958,985.235474 574.031128,991.354248 
	C580.568359,985.041626 582.065125,975.306702 589.468079,970.577698 
	C589.962830,970.961182 590.457581,971.344727 590.952332,971.728210 
	C587.542236,977.382385 584.419861,983.238464 580.635803,988.630066 
	C577.306335,993.373779 575.675659,998.283875 576.302490,1004.014404 
	C576.462463,1005.476624 576.326477,1006.971252 576.326477,1008.450989 
	C575.862793,1008.751770 575.399170,1009.052490 574.935486,1009.353210 
	C574.000061,1008.267212 572.118103,1007.016541 572.273987,1006.120361 
	C574.078186,995.750305 567.624146,988.549011 562.702026,980.363403 
z"/>
<path fill="#FBAA38" opacity="1.000000" stroke="none" 
	d="
M838.109924,1008.856689 
	C830.066467,1008.922913 822.430847,1008.922913 814.050842,1008.922913 
	C814.050842,1002.679260 814.050476,996.755066 814.050964,990.830872 
	C814.051392,985.336060 814.130066,979.839722 814.023132,974.347046 
	C813.964050,971.314087 815.114075,970.401672 818.277710,971.669922 
	C818.277710,982.530212 818.277710,993.490662 818.277710,1005.196594 
	C824.400818,1005.196594 830.176636,1005.220581 835.952148,1005.185913 
	C838.596130,1005.170105 840.419434,1005.624451 838.109924,1008.856689 
z"/>
<path fill="#FCAC3D" opacity="1.000000" stroke="none" 
	d="
M407.008118,1008.957764 
	C402.902374,1008.957642 399.289795,1008.957642 395.121216,1008.957642 
	C395.121216,996.822083 395.074707,985.232788 395.215637,973.645813 
	C395.226105,972.784241 396.581543,971.939026 397.311646,971.086182 
	C398.014099,972.119263 399.304688,973.140442 399.325928,974.187378 
	C399.494446,982.497253 399.421631,990.812012 399.422821,999.125305 
	C399.423096,1000.917725 399.422852,1002.710144 399.422852,1005.178101 
	C405.370605,1005.178101 410.815338,1005.041443 416.244598,1005.271179 
	C417.659393,1005.331055 419.025909,1006.533020 420.414581,1007.210510 
	C419.102905,1007.792908 417.824493,1008.762390 416.472778,1008.878540 
	C413.501953,1009.133850 410.494019,1008.957825 407.008118,1008.957764 
z"/>
<path fill="#FBAA38" opacity="1.000000" stroke="none" 
	d="
M908.637329,931.794067 
	C901.396240,931.371460 896.856384,935.361511 892.458740,939.828857 
	C890.928162,941.383728 888.863098,942.412476 886.546204,942.996216 
	C891.189270,936.146973 896.421875,930.072632 904.921082,928.270447 
	C912.690857,926.622986 919.305176,932.272705 918.735535,940.258179 
	C918.653503,941.407837 916.905701,942.438660 915.466736,943.167480 
	C914.653198,938.140930 914.635315,933.475830 908.637329,931.794067 
z"/>
<path fill="#FFFDFB" opacity="1.000000" stroke="none" 
	d="
M475.059875,996.598877 
	C470.015228,1004.746948 462.423767,1007.429016 454.505341,1004.197510 
	C447.637756,1001.394897 443.804260,993.989807 445.473846,986.751831 
	C447.561920,977.699524 456.033630,972.756897 465.379486,975.138062 
	C474.215881,977.389465 478.272247,986.110962 475.059875,996.598877 
z"/>
<path fill="#FFFDFB" opacity="1.000000" stroke="none" 
	d="
M514.146423,974.804077 
	C517.607239,974.870239 520.603821,974.770935 523.565735,975.045776 
	C529.072876,975.556946 532.164185,978.890381 532.178528,984.015564 
	C532.193237,989.256348 529.229553,992.591431 523.667908,993.007996 
	C519.726074,993.303223 515.744324,993.065308 511.085297,993.065308 
	C511.085297,987.512695 511.012543,981.947510 511.198090,976.390930 
	C511.216614,975.836182 512.806152,975.334045 514.146423,974.804077 
z"/>
<path fill="#FFFDFB" opacity="1.000000" stroke="none" 
	d="
M660.625610,977.700195 
	C663.242188,983.581299 665.690552,989.150269 668.382751,995.273865 
	C662.371887,995.273865 657.000977,995.273865 650.673584,995.273865 
	C653.561951,988.947083 656.335449,982.870178 659.165100,976.819519 
	C659.169739,976.809692 660.008362,977.189941 660.625610,977.700195 
z"/>
<path fill="#FFFDFB" opacity="1.000000" stroke="none" 
	d="
M773.778320,995.654541 
	C770.020508,995.654358 766.718994,995.654358 762.280823,995.654358 
	C765.389832,988.650024 768.153687,982.423340 771.281128,975.377380 
	C774.444336,982.511536 777.180054,988.681641 780.271790,995.654663 
	C777.749023,995.654663 775.991760,995.654663 773.778320,995.654541 
z"/>
</svg>